<?xml version="1.0" standalone="no"?>
<!DOCTYPE svg PUBLIC "-//W3C//DTD SVG 1.1//EN" "http://www.w3.org/Graphics/SVG/1.1/DTD/svg11.dtd">
<svg version="1.1" xmlns="http://www.w3.org/2000/svg" viewBox="0 0 93.9691736314644 91.98342576196131" width="281.9075208943932" height="275.95027728588394"><!-- svg-source:excalidraw --><metadata></metadata><defs><style class="style-fonts">
      </style></defs><g stroke-linecap="round" transform="translate(10 10) rotate(0 36.9845868157322 35.99171288098066)"><path d="M18 0 C28.56 -1.06, 34.77 -0.7, 55.97 0 M18 0 C26.28 -0.08, 35.18 -0.5, 55.97 0 M55.97 0 C69.55 -0.46, 75.17 7.39, 73.97 18 M55.97 0 C69.32 1.11, 71.84 4.15, 73.97 18 M73.97 18 C75.12 25.72, 72.34 37.55, 73.97 53.99 M73.97 18 C74.05 32.59, 73.44 46.12, 73.97 53.99 M73.97 53.99 C74.49 66.18, 68.45 71.43, 55.97 71.98 M73.97 53.99 C74.1 65.55, 66.84 73.66, 55.97 71.98 M55.97 71.98 C42.58 72.17, 31.31 72.64, 18 71.98 M55.97 71.98 C42.83 73.03, 29.24 72.3, 18 71.98 M18 71.98 C7.99 71.55, 2 64.1, 0 53.99 M18 71.98 C6.53 70.24, 0.67 65.31, 0 53.99 M0 53.99 C1.3 43.35, 0.35 33.62, 0 18 M0 53.99 C-0.3 41, -0.51 28.85, 0 18 M0 18 C1.22 5.24, 7.62 1.38, 18 0 M0 18 C1.88 4.93, 6.75 -1.81, 18 0" stroke="#0095f6" stroke-width="2" fill="none"></path></g><g stroke-linecap="round" transform="translate(19.26682970354159 21.583537129427214) rotate(0 13.155593444112583 13.321073222303752)"><path d="M12.8 -0.04 C15.38 -0.37, 18.79 0.88, 20.95 2.71 C23.11 4.53, 25.16 8.02, 25.76 10.91 C26.36 13.79, 25.79 17.49, 24.56 20.02 C23.33 22.55, 21.01 25.08, 18.38 26.1 C15.76 27.12, 11.61 27.02, 8.81 26.14 C6.01 25.26, 3.1 23.35, 1.58 20.83 C0.06 18.32, -0.7 14.02, -0.29 11.04 C0.12 8.07, 1.75 4.88, 4.04 2.97 C6.34 1.06, 11.84 -0.04, 13.48 -0.41 C15.11 -0.77, 13.94 0.46, 13.85 0.78 M12.43 -0.34 C15.16 -0.39, 19.24 1.68, 21.49 3.65 C23.74 5.62, 25.32 8.9, 25.93 11.46 C26.55 14.03, 26.56 16.76, 25.17 19.02 C23.78 21.28, 20.38 23.93, 17.59 25 C14.8 26.07, 11.13 26.33, 8.41 25.46 C5.69 24.59, 2.7 22.21, 1.29 19.77 C-0.11 17.33, -0.53 13.46, -0.02 10.82 C0.49 8.17, 2.32 5.63, 4.37 3.88 C6.41 2.13, 10.92 0.83, 12.25 0.31 C13.57 -0.2, 12.18 0.64, 12.33 0.78" stroke="#0095f6" stroke-width="2" fill="none"></path></g><g stroke-linecap="round"><g transform="translate(60.08160120543653 42.433913431188955) rotate(35.588897549806624 5.085887052903217 18.875370217111993)"><path d="M0.38 0.24 C2.13 3.48, 10.31 12.79, 10.27 18.95 C10.22 25.11, 1.83 34.22, 0.13 37.2 M-0.09 -0.12 C1.63 3.01, 9.92 11.82, 9.93 18.15 C9.94 24.49, 1.58 34.69, -0.01 37.87" stroke="#0095f6" stroke-width="2" fill="none"></path></g></g><mask></mask></svg>